<?xml version="1.0" encoding="utf-8"?>
<svg version="1.1" xmlns:xlink="http://www.w3.org/1999/xlink" width="20px" height="19px" xmlns="http://www.w3.org/2000/svg">
  <g transform="matrix(1 0 0 1 -497 -158 )">
    <path d="M 19.7995991983968 8.73291925465838  C 19.9331997327989 8.86404416839199  20 9.01483781918564  20 9.18530020703934  C 20 9.35576259489303  19.9331997327989 9.50655624568668  19.7995991983968 9.63768115942029  L 10.4609218436874 18.8033126293996  C 10.3273213092852 18.9344375431332  10.1736806947228 19  10 19  C 9.82631930527722 19  9.67267869071476 18.9344375431332  9.53907815631263 18.8033126293996  L 0.200400801603206 9.63768115942029  C 0.066800267201069 9.50655624568668  0 9.35576259489303  0 9.18530020703934  C 0 9.01483781918564  0.066800267201069 8.86404416839199  0.200400801603206 8.73291925465838  L 1.20240480961924 7.74948240165631  C 1.33600534402138 7.6183574879227  1.48964595858383 7.5527950310559  1.66332665330661 7.5527950310559  C 1.83700734802939 7.5527950310559  1.99064796259185 7.6183574879227  2.12424849699399 7.74948240165631  L 10 15.4792960662526  L 17.875751503006 7.74948240165631  C 18.0093520374081 7.6183574879227  18.1629926519706 7.5527950310559  18.3366733466934 7.5527950310559  C 18.5103540414162 7.5527950310559  18.6639946559786 7.6183574879227  18.7975951903808 7.74948240165631  L 19.7995991983968 8.73291925465838  Z M 19.7995991983968 1.18012422360248  C 19.9331997327989 1.31124913733609  20 1.46204278812974  20 1.63250517598344  C 20 1.80296756383713  19.9331997327989 1.95376121463078  19.7995991983968 2.08488612836439  L 10.4609218436874 11.2505175983437  C 10.3273213092852 11.3816425120773  10.1736806947228 11.4472049689441  10 11.4472049689441  C 9.82631930527722 11.4472049689441  9.67267869071476 11.3816425120773  9.53907815631263 11.2505175983437  L 0.200400801603206 2.08488612836439  C 0.066800267201069 1.95376121463078  0 1.80296756383713  0 1.63250517598344  C 0 1.46204278812974  0.066800267201069 1.31124913733609  0.200400801603206 1.18012422360248  L 1.20240480961924 0.196687370600414  C 1.33600534402138 0.0655624568668032  1.48964595858383 0  1.66332665330661 0  C 1.83700734802939 0  1.99064796259185 0.0655624568668032  2.12424849699399 0.196687370600414  L 10 7.92650103519669  L 17.875751503006 0.196687370600414  C 18.0093520374081 0.0655624568668032  18.1629926519706 0  18.3366733466934 0  C 18.5103540414162 0  18.6639946559786 0.0655624568668032  18.7975951903808 0.196687370600414  L 19.7995991983968 1.18012422360248  Z " fill-rule="nonzero" fill="#00a2e8" stroke="none" transform="matrix(1 0 0 1 497 158 )" />
  </g>
</svg>